<?xml version="1.0" encoding="UTF-8"?>
<svg id="uuid-cd486644-363b-4938-8efc-64fb8d0f0129" data-name="Layer 1" xmlns="http://www.w3.org/2000/svg" width="5.39494in" height="7.26378in" xmlns:xlink="http://www.w3.org/1999/xlink" viewBox="0 0 388.43571 522.9922">
  <defs>
    <style>
      .uuid-9bf00d45-f3e0-4a7a-9589-d03ace3eb5c0, .uuid-dcd89d18-1080-4699-a546-8cc47e5eed7a {
        fill: none;
      }

      .uuid-8d8db4e3-5278-481a-ae57-eebdc1a4dfc9 {
        fill: #fff;
      }

      .uuid-17e22888-fcb0-4244-8d1b-dfdb548a2abd {
        fill: #8fbc40;
      }

      .uuid-c8fd29ff-f908-4ebb-8df3-f3546c528b2c {
        fill: #231d20;
      }

      .uuid-615ede3b-c1a0-43cc-aa70-66fa75e4feee {
        clip-path: url(#uuid-4d6875d4-9ea2-4b2d-8aea-30c54839f511);
      }

      .uuid-dcd89d18-1080-4699-a546-8cc47e5eed7a {
        stroke: #fff;
        stroke-linecap: round;
        stroke-linejoin: round;
        stroke-width: 18.33175px;
      }

      .uuid-6b923ab5-ac73-4a6a-a894-67aa87e28218 {
        filter: url(#uuid-e07a3448-67a1-4290-b623-7fe49e2f781c);
      }
    </style>
    <clipPath id="uuid-4d6875d4-9ea2-4b2d-8aea-30c54839f511">
      <rect class="uuid-9bf00d45-f3e0-4a7a-9589-d03ace3eb5c0" width="388.43571" height="522.9922"/>
    </clipPath>
    <filter id="uuid-e07a3448-67a1-4290-b623-7fe49e2f781c" data-name="drop-shadow-1" filterUnits="userSpaceOnUse">
      <feOffset dx="0" dy="0"/>
      <feGaussianBlur result="uuid-a84713c2-1aea-4068-b912-623f803538f0" stdDeviation="8.14744"/>
      <feFlood flood-color="#000" flood-opacity=".08"/>
      <feComposite in2="uuid-a84713c2-1aea-4068-b912-623f803538f0" operator="in"/>
      <feComposite in="SourceGraphic"/>
    </filter>
  </defs>
  <g class="uuid-615ede3b-c1a0-43cc-aa70-66fa75e4feee">
    <rect class="uuid-c8fd29ff-f908-4ebb-8df3-f3546c528b2c" y="-4.52302" width="388.43571" height="527.51523"/>
    <path class="uuid-17e22888-fcb0-4244-8d1b-dfdb548a2abd" d="M-9.03533,215.90743c2.79604-9.08713,39.16938-72.04512,39.16938-72.04512l47.7177-18.60956,32.16639,7.75118,28.6066,27.01031,9.71953,35.73104,47.44866-9.8835,62.06293-86.23192,18.93329,34.36443,45.5458-7.79868,43.92847,26.02196,15.04035,43.52771h41.64911V-16.86292H-13.9284l4.89307,232.77035Z"/>
    <g class="uuid-6b923ab5-ac73-4a6a-a894-67aa87e28218">
      <polyline class="uuid-dcd89d18-1080-4699-a546-8cc47e5eed7a" points="191.3601 192.75821 80.34096 192.75821 135.47907 94.9664"/>
      <circle class="uuid-dcd89d18-1080-4699-a546-8cc47e5eed7a" cx="77.85175" cy="195.74527" r="70.49253"/>
      <circle class="uuid-dcd89d18-1080-4699-a546-8cc47e5eed7a" cx="310.81124" cy="195.74527" r="70.49253"/>
      <polyline class="uuid-dcd89d18-1080-4699-a546-8cc47e5eed7a" points="278.48275 46.39217 240.31871 67.79945 310.81124 195.74527"/>
      <line class="uuid-dcd89d18-1080-4699-a546-8cc47e5eed7a" x1="93.21703" y1="67.30161" x2="158.93239" y2="67.30161"/>
      <polyline class="uuid-dcd89d18-1080-4699-a546-8cc47e5eed7a" points="119.67061 67.30161 191.3601 192.75821 254.79325 94.07112"/>
    </g>
    <g>
      <path class="uuid-8d8db4e3-5278-481a-ae57-eebdc1a4dfc9" d="M25.87576,294.88806h26.55664l.46875,.15625h.46851l1.24976,.15625,2.49951,.625c4.45215,1.95264,7.62842,4.86865,9.5293,8.74805,3.12427,7.39453,1.61401,13.27832-4.53027,17.65234,4.42578,2.0835,7.1333,5.25977,8.12329,9.5293,1.77026,10.46631-1.82275,17.65234-10.77905,21.55811h-.46851c-1.22412,.57275-2.36963,.88525-3.43677,.93701l-1.09351,.3125h-.46875l-3.90552,.15625H23.68875v-59.83105h2.18701Zm9.9978,24.05762h14.37183l.93726-.15625c3.43677-1.74414,4.79028-4.34814,4.06177-7.81104-.59937-1.50977-1.48413-2.70752-2.65576-3.59277-.54663-.15625-1.01538-.36426-1.40601-.625l-.62476-.15625h-.93726c-.49487-.10352-.91162-.15625-1.24976-.15625h-12.49731v12.49756Zm0,24.05713h13.12207c1.37988,0,2.52515-.10352,3.43677-.3125,3.61865-1.8999,5.18091-4.71191,4.68652-8.43555-.78101-2.55127-2.2395-4.37402-4.37402-5.46777-.80737-.12988-1.48413-.28613-2.03076-.46826h-14.84058v14.68408Z"/>
      <path class="uuid-8d8db4e3-5278-481a-ae57-eebdc1a4dfc9" d="M83.42581,295.04431h10.3103v59.6748h-12.34106v-59.6748h2.03076Z"/>
      <path class="uuid-8d8db4e3-5278-481a-ae57-eebdc1a4dfc9" d="M158.6282,312.22839l-.62476,.46826-2.65576,.9375-.62476,.3125-.625,.15625c-.75537,.44287-1.43213,.75537-2.03076,.93701l-.78101,.15625-.3125,.3125h-.46875l-.31226,.3125h-.46875l-.3125,.3125h-.46851l-.3125,.3125-.62476,.15625-1.71851,.62451c-2.60376-9.45068-8.64429-13.25195-18.12109-11.40381-7.34204,2.83838-10.93506,8.30615-10.77881,16.40283-.96362,8.41016,1.06714,14.7627,6.09229,19.05859,4.13989,2.81201,8.46143,3.54102,12.96606,2.18701,5.67554-1.84863,8.9043-5.5459,9.6853-11.09131,.98926,.18213,1.82227,.49463,2.49951,.93701,1.06738,.28711,1.95264,.59961,2.65576,.9375l.62476,.3125,.93726,.3125,.46875,.15625,1.09351,.46826,.62476,.15625,.46875,.3125c.52051,.13086,.93726,.28711,1.24976,.46875l1.87451,.625c-4.16577,11.56006-11.9248,17.80859-23.27612,18.74561-11.48193,.83398-20.17822-3.07178-26.08813-11.71582-6.30127-11.11719-7.23853-22.10498-2.81201-32.96191,4.47778-10.33594,11.87256-16.16846,22.18286-17.49609,15.17847-.78125,25.17651,5.41553,29.99341,18.58984Z"/>
      <path class="uuid-8d8db4e3-5278-481a-ae57-eebdc1a4dfc9" d="M160.72171,295.04431h13.27856l.31226,.46875,.625,1.09326,1.56201,2.81201,.46875,.9375,.46875,.78125,.31226,.78076,.3125,.3125,.15625,.46875c.12988,.10449,.18188,.2085,.15625,.3125,.65039,.91162,1.11914,1.74463,1.40601,2.49951,.46851,.62451,.78101,1.19775,.93726,1.71826l.46851,.625,.15625,.46826,.46875,.625,.15625,.46875,.46851,.625,.3125,.62451,.3125,.46875,.15625,.46875,.46851,.625,.15625,.31201,.3125,.9375c.18188,.10449,.28613,.2085,.31226,.3125,.57251,1.19775,1.14551,2.13525,1.71851,2.81201l.46875-1.09375,1.56201-2.65576,.46875-.93701,.46851-.78125,.46875-.93701,1.24976-2.1875,.62476-.93701,.3125-.9375,.3125-.3125,.15625-.31201,.15601-.46875c.46875-.67676,.83301-1.30176,1.09351-1.87451l.3125-.625,.46875-.625,.3125-.625,.15601-.46826,.46875-.625,.3125-.46875,.15625-.46875,.31226-.46826,.15625-.46875,.3125-.46875,1.56201-2.81201h14.21582l-1.40601,2.49951-.3125,.46875-.31226,.78125-.3125,.46826-.3125,.46875-.15625,.46875-.31226,.46875-.15625,.46875-.3125,.15576c-.28687,.85938-.65112,1.58838-1.09351,2.18701l-.15625,.3125-1.56201,2.81201-.15625,.3125-.15625,.3125-1.71851,2.81201-.46851,1.09326-.15625,.3125c-.3125,.521-.52124,.9375-.62476,1.24951-.33887,.41699-.54688,.78125-.625,1.09375l-.46875,.78125-1.24951,2.18701-.15625,.31201-.15625,.3125-.15625,.3125-.3125,.3125c-.39038,1.01562-.85913,1.84912-1.40601,2.49951l-.31226,.625-.3125,.62451-.3125,.78125-.46851,.46875-.15625,.3125c-.67749,1.64014-1.40601,2.94238-2.18701,3.90527l-.15625,.3125c-.59937,1.43213-1.22412,2.57764-1.87451,3.43652v23.74512h-12.34131v-23.74512c-.88525-1.24951-1.51025-2.29053-1.87451-3.12402l-.62476-1.09375c-.52124-.88477-.8855-1.61377-1.09351-2.18701l-.625-1.09326c-.72925-1.01562-1.24976-1.95264-1.56201-2.81201l-.625-1.09375-.62476-.93701-.625-1.09375-.15625-.62451c-.49487-.52051-.80713-1.04102-.93726-1.5625l-.3125-.46875-.93726-1.56201-1.71826-3.43652-.3125-.15625-.3125-.9375c-.67725-.88477-1.146-1.71826-1.40576-2.49951l-.46875-.46875-.3125-.62451-.46851-.78125-.15625-.625-.46875-.62451c-.3125-.52051-.521-.98926-.62476-1.40625-.15625-.12988-.26074-.28613-.3125-.46875l-.3125-.46826-.15625-.46875c-.78101-.91113-1.302-1.84863-1.56201-2.81201-.72925-.85938-1.198-1.69189-1.40601-2.49951h.78101Z"/>
      <path class="uuid-8d8db4e3-5278-481a-ae57-eebdc1a4dfc9" d="M269.04202,312.22839l-.62476,.46826-2.65576,.9375-.62476,.3125-.625,.15625c-.75537,.44287-1.43213,.75537-2.03076,.93701l-.78101,.15625-.3125,.3125h-.46875l-.31226,.3125h-.46875l-.3125,.3125h-.46851l-.3125,.3125-.62476,.15625-1.71851,.62451c-2.60376-9.45068-8.64429-13.25195-18.12109-11.40381-7.34204,2.83838-10.93506,8.30615-10.77881,16.40283-.96362,8.41016,1.06714,14.7627,6.09229,19.05859,4.13989,2.81201,8.46143,3.54102,12.96606,2.18701,5.67554-1.84863,8.9043-5.5459,9.6853-11.09131,.98926,.18213,1.82227,.49463,2.49951,.93701,1.06738,.28711,1.95264,.59961,2.65576,.9375l.62476,.3125,.93726,.3125,.46875,.15625,1.09351,.46826,.62476,.15625,.46875,.3125c.52051,.13086,.93726,.28711,1.24976,.46875l1.87451,.625c-4.16577,11.56006-11.9248,17.80859-23.27612,18.74561-11.48193,.83398-20.17822-3.07178-26.08813-11.71582-6.30127-11.11719-7.23853-22.10498-2.81201-32.96191,4.47778-10.33594,11.87256-16.16846,22.18286-17.49609,15.17847-.78125,25.17651,5.41553,29.99341,18.58984Z"/>
      <path class="uuid-8d8db4e3-5278-481a-ae57-eebdc1a4dfc9" d="M280.82083,294.88806h10.3103v47.80225h26.24414v11.87256h-38.58521v-59.6748h2.03076Z"/>
      <path class="uuid-8d8db4e3-5278-481a-ae57-eebdc1a4dfc9" d="M325.09256,294.88806h38.7417v11.87256h-26.86963v12.02881h24.37012v11.09131h-24.37012v12.49707c.2085,.44336,.57275,.59961,1.09375,.46875h28.11914v11.87256h-41.55371v-59.83105h.46875Z"/>
    </g>
    <g>
      <path class="uuid-8d8db4e3-5278-481a-ae57-eebdc1a4dfc9" d="M23.19265,368.61022H56.04055v8.07471h-23.8147v13.68701h21.76172v8.21191h-21.76172v22.30908h-9.0332v-52.28271Z"/>
      <path class="uuid-8d8db4e3-5278-481a-ae57-eebdc1a4dfc9" d="M63.89676,368.3363h15.7395c.79834-.06836,1.57397-.10254,2.32666-.10254,8.64502,0,14.48486,3.77539,17.51904,11.32568,.61572,1.98438,.92383,3.91211,.92383,5.78271,0,2.2124-.44482,4.34521-1.33447,6.39844-1.59692,3.90039-4.28882,6.41016-8.0752,7.52734l.27368,.27393,.13696,.41064,1.09497,2.05273,.41064,.82129,.27368,.82129,1.23169,2.18994,.54761,1.23193,.27368,.41016,.13696,.41064,.4104,.95801c.36475,.54785,.59302,1.00439,.68433,1.36865,.3877,.52539,.66138,.98145,.82129,1.36914l.41064,.8208,.27368,.68457c.36475,.61572,.63843,1.20947,.82129,1.7793,.61572,.84424,1.02637,1.66504,1.23169,2.46338l.27368,.27393,.27393,.54736,.54736,1.36865c.31909,.38818,.50146,.79883,.54736,1.23193h-9.58057l-.41064-.82129c-.57031-.95801-.98096-1.82471-1.23169-2.60059l-.82129-1.36865-.13672-.54736c-.41064-.54736-.68433-1.04883-.82129-1.50537l-.41064-.82129-.13672-.41064c-.04614-.04541-.08032-.08545-.10278-.11963-.02295-.03418-.03418-.07373-.03418-.12012v-.03418l-.27368-.27344-.13696-.27393-.13672-.41064-.82129-1.64209-.82129-1.50586-.27368-.54736-.13696-.54736-.27368-.27393-.13672-.41064-.27393-.41064-.13672-.27344c-.29688-.72998-.57056-1.27734-.82129-1.64258l-1.7793-3.83203h-9.0332v20.39307h-9.03296v-52.41992Zm9.03296,23.95166h12.28394c.45605,0,.88379-.01123,1.28296-.03418,.39893-.02246,.7583-.05664,1.07788-.10254,2.87427-2.03027,4.31128-4.4707,4.31128-7.32275,0-1.07178-.20532-2.18945-.61597-3.35303-.93555-2.09863-2.34961-3.604-4.24268-4.5166l-1.36865-.27393c-.27393-.04541-.53638-.07959-.78711-.10254-.25122-.02246-.49072-.03418-.71851-.03418h-11.22314v15.73975Z"/>
      <path class="uuid-8d8db4e3-5278-481a-ae57-eebdc1a4dfc9" d="M112.67581,368.61022h9.0332v52.28271h-9.0332v-52.28271Z"/>
      <path class="uuid-8d8db4e3-5278-481a-ae57-eebdc1a4dfc9" d="M136.10061,368.47302h32.8479v8.21191h-23.8147v13.13916c.02246,.36523,.19336,.54785,.51318,.54785h21.24854v8.07471h-21.76172v13.68701c0,.45654,.18213,.68408,.54736,.68408h24.77295v8.0752h-34.35352v-52.41992Z"/>
      <path class="uuid-8d8db4e3-5278-481a-ae57-eebdc1a4dfc9" d="M181.62942,368.3363h10.12793l.54761,.95801,.27368,.27393,.54736,.95801c.18237,.25098,.34229,.49609,.479,.73535,.13696,.23975,.25073,.45068,.34229,.6333l.27368,.13672,.13696,.27393,1.23169,1.91602,1.09497,1.64258c.09082,.06836,.13696,.13672,.13696,.20508v.06836c.68433,.75293,1.14038,1.43701,1.36865,2.05322,.31909,.3418,.58691,.67285,.80396,.99219,.21655,.31982,.40479,.62744,.5647,.92383l.54736,.68408,.41064,.82129,.27368,.41064,.27368,.27393,.54761,.95801,.27368,.27393,.95801,1.50537,1.09497,1.64209,.95801,1.36865,.27393,.27393,.27368,.41064,.13672,.41064,.27393,.41064,.27368,.27344,.54736,.9585,.27368,.27344,.95825,1.50537,.13672,.27393,.27368,.41064c.09106,.06836,.13696,.13672,.13696,.20508v.06885c.22778,.25098,.43311,.49072,.61597,.71826,.18237,.22852,.34204,.44482,.479,.65039l.41064,.68408,.27368,.54736c.479,.50195,.7981,1.00439,.95801,1.50586l.54761,.8208c.27368,.20557,.50146,.47949,.68433,.82129l.54736,.82129c.22778,.31982,.41602,.61572,.5647,.88965,.14795,.27393,.27905,.5249,.39331,.75293,.15942,.11426,.25073,.25098,.27368,.41064l.41064,.27344,.13696,.41064,.27368,.27393,.27368,.41064,.13696,.41064c.70679,.8208,1.20874,1.50537,1.50562,2.05273v-37.63818h9.03296v52.41992h-10.12793l-.54761-.95801-.27368-.27393-.13696-.41064c-.70728-.82129-1.20923-1.50537-1.50537-2.05273l-.13696-.27393c-.34204-.45605-.63892-.87793-.88965-1.26611-.25122-.3877-.45654-.74072-.61572-1.06055l-.68433-.82129-1.3689-2.05273-.13672-.27393-.27368-.27393-.54761-.95801c-.18286-.25049-.34204-.49609-.479-.73535-.13672-.23975-.25122-.4502-.34204-.6333-.479-.479-.79883-.88965-.95825-1.23193-.34204-.52441-.57031-.93506-.68433-1.23145-.15967-.09082-.25122-.18262-.27368-.27393l-.27368-.27344-.13696-.41064-.27368-.27393-.13672-.41064c-.25146-.25049-.46802-.48438-.65015-.70117-.18286-.2168-.33105-.43896-.44482-.66748l-1.7793-2.60059-.27368-.68408c-.57056-.52441-.93579-1.07227-1.09497-1.64258-.68433-.75244-1.14087-1.43701-1.36865-2.05273l-.54761-.54785-.27368-.68408-.68433-.68457-.41064-.8208-.41064-.54785c-.18262-.25049-.34204-.49609-.479-.73535-.13672-.23975-.25122-.4502-.34204-.6333l-.54761-.8208c-.15967-.09131-.25122-.18262-.27368-.27393l-.95801-1.36865c-.22827-.31934-.4165-.61572-.5647-.88965-.14844-.27393-.27954-.52441-.39331-.75293l-.41064-.41064-.13696-.41064-.4104-.41016-.13696-.41064c-.15991-.09082-.25122-.18262-.27368-.27393-.04614-.04541-.08032-.08545-.10278-.11963-.02295-.03418-.03418-.07373-.03418-.11963v-.03467c-.70728-.8208-1.20923-1.50537-1.50562-2.05273v37.50146h-9.03296v-52.41992Z"/>
      <path class="uuid-8d8db4e3-5278-481a-ae57-eebdc1a4dfc9" d="M240.77615,368.47302h19.2981l.41064,.13721h.4104l.27393-.13721h.54736l.54761,.13721h.4104l2.18994,.13672,.68433,.13672,.54736,.13672,.27393,.13721,1.09497,.27344,2.05298,.68457,1.36865,.82129,.4104,.13672c.47925,.22852,.84375,.45654,1.09497,.68457,.15942,.09131,.25073,.18262,.27368,.27344,.84375,.45654,1.48267,.86719,1.91626,1.23193,5.90771,6.38721,8.86206,13.43604,8.86206,21.146,0,.79834-.02881,1.60254-.08545,2.41211-.05737,.81006-.15405,1.625-.29102,2.44629-2.7373,14.37109-10.6189,21.55664-23.64355,21.55664-.34229,0-.68433-.00537-1.02661-.01709-.34204-.01123-.69604-.02832-1.06055-.05127h-16.56079v-52.2832Zm9.0332,44.20801h10.67554l.4104-.13672h.41064l2.18994-.27393,1.09497-.27393c.38745-.25049,.76978-.4502,1.14624-.59863,.37646-.14795,.72388-.26758,1.04346-.35938,.09106-.15918,.18237-.25049,.27393-.27344l.41064-.13721,.13672-.27344,.41064-.13721,.13696-.27344,.4104-.13672c.29639-.43311,.61597-.75293,.95825-.9585,.43286-.59277,.88965-1.09473,1.36865-1.50537,2.37207-4.40234,3.55835-8.74756,3.55835-13.03662v-.51318c-.31958-7.29932-3.10229-12.63721-8.34888-16.01318h-.4104c-.38818-.25098-.77002-.43311-1.14624-.54736-.37646-.11426-.72461-.20557-1.0437-.27393l-.68433-.13672-1.7793-.27393h-11.2229v36.13281Z"/>
      <path class="uuid-8d8db4e3-5278-481a-ae57-eebdc1a4dfc9" d="M294.10623,368.47302h9.0332v44.20801h20.39307v8.0752h-29.42627v-52.2832Z"/>
      <path class="uuid-8d8db4e3-5278-481a-ae57-eebdc1a4dfc9" d="M322.49197,368.47302h9.58057l.54736,.95801,.41064,.95801,.54736,.82129,.13721,.41064c.25049,.43359,.4668,.82715,.6499,1.18066,.18213,.354,.33057,.68994,.44482,1.00928l.54736,.82129,.41064,.68408,.13672,.41064c.3877,.5708,.66162,1.11816,.82129,1.64258l.54736,.82129c.15967,.22803,.2793,.44482,.35938,.6499,.07959,.20557,.14209,.39941,.18848,.58154,.45605,.54785,.7749,1.14111,.95801,1.7793,.43311,.50244,.70654,1.00439,.82129,1.50586l.41016,.54736,.27393,.68408,.41064,.54785,.41064,.8208c.25049,.41064,.43311,.82129,.54736,1.23193,.56982,.75293,.93506,1.43701,1.09473,2.05322,.45605,.57031,.77539,1.16309,.9585,1.7793,.22754-.22803,.41016-.50146,.54736-.82129l.54736-.82129,.41064-.95801,.54736-.82129,.41064-.95801,.13672-.27393c.25098-.38721,.46729-.74658,.65039-1.07764,.18213-.33057,.33008-.65527,.44482-.9751,.25049-.36475,.46729-.71875,.6499-1.06104,.18262-.3418,.33057-.67236,.44482-.99219l.27393-.13672c.2959-.84375,.66113-1.57422,1.09473-2.18994l.41064-.82129,.82129-1.50537,.27393-.54736,.27344-.41064,.13672-.27393c.15967-.3418,.31934-.6499,.479-.92383,.15967-.27344,.31934-.51318,.47949-.71826l.13672-.54785,.27344-.41016,.27393-.54785,.27393-.27344c.13672-.50146,.27344-.8667,.41064-1.09521l.27344-.27344,1.23193-2.46387h9.58057v.41064l-.27393,.27393-.41016,.95801-1.64258,2.7373c-.43359,1.20947-.93555,2.16748-1.50537,2.87402l-.41064,.82129-.41064,.95801-.27393,.54736-.54736,.82129-.13672,.41064-.27393,.27393-1.23193,2.46338-.54736,.82129-1.09473,2.32666-1.23193,2.05322-.27393,.68408-.41064,.54736c-.57031,1.32324-1.11768,2.32715-1.64209,3.01123l-.27393,.68457-.27344,.54736-.27393,.41064-.13672,.41064c-.5708,.86719-.98096,1.64209-1.23193,2.32666l-.27393,.27344-.41016,.95801-1.64258,2.73779v20.94043h-9.0332v-20.94043c-.15967-.09131-.25146-.18262-.27393-.27393l-.13672-.41064c-.27393-.34229-.50195-.70703-.68457-1.09473l-1.23145-2.32715-.41064-.8208-.27393-.41064c-.25098-.41064-.43359-.82129-.54736-1.23193-.57031-.75293-.93555-1.43701-1.09473-2.05322-.45654-.56982-.77588-1.16309-.95801-1.77881-.04639-.0459-.08057-.08594-.10303-.12012-.02295-.03418-.03418-.07373-.03418-.11963v-.03418l-.27344-.13672-.13721-.27393-.13672-.41064-.82129-1.64258c-.20508-.27344-.34229-.54736-.41064-.8208l-.54736-.68457-.41064-.82129-.27344-.8208-.41064-.54785-.27393-.68408-.82129-1.36865-.95801-1.64258-.27344-.82129-.27393-.27344c-.41064-.79834-.77588-1.43701-1.09521-1.9165l-.68408-1.64209c-.15967-.11377-.25146-.25098-.27393-.41064-.29639-.36475-.479-.72998-.54736-1.09473-.45654-.57031-.77588-1.16357-.95801-1.7793-.77588-1.02686-1.27783-1.98486-1.50537-2.87451Z"/>
    </g>
    <g>
      <path class="uuid-8d8db4e3-5278-481a-ae57-eebdc1a4dfc9" d="M22.67483,433.72888h16.25659c.83862-.06445,1.65552-.09668,2.45142-.09668,7.78418,0,12.68701,2.78467,14.7085,8.354,.4082,1.54834,.61279,3.02148,.61279,4.41895,0,4.21484-1.88184,7.55859-5.64478,10.03125,4.10718,.96777,6.6875,3.29004,7.74121,6.96729,.23657,.94629,.40332,1.85986,.5,2.7417,.09692,.88184,.14526,1.73096,.14526,2.54785,0,6.10742-3.01099,10.58008-9.03149,13.41846h-.38696l-.90332,.38721h-.38696c-.77417,.30127-1.50537,.47314-2.19336,.51562-.34424,0-.66675,.01123-.96777,.03271-.30127,.02148-.58057,.05371-.83862,.09668H22.67483v-49.41504Zm8.64429,19.74023h12.25708c.45166-.06445,.85986-.13965,1.22583-.22607,.36523-.08545,.68774-.18213,.96753-.29004,2.17163-1.52686,3.25781-3.46191,3.25781-5.80615v-.38721c0-.12891-.01123-.25781-.03223-.38672-.60229-2-1.76343-3.50488-3.48364-4.51562l-1.54834-.38721-.77393-.12891h-11.87012v12.12793Zm0,21.93359h11.74097l2.83862-.2583c3.71973-1.61279,5.58008-4.03174,5.58008-7.25732,0-.77393-.09692-1.58057-.29028-2.41895-.90332-2.23633-2.32251-3.82764-4.25781-4.77393-.55933-.15039-1.08057-.26855-1.56421-.35498-.48389-.08545-.90869-.13965-1.27417-.16113h-12.77319v15.22461Z"/>
      <path class="uuid-8d8db4e3-5278-481a-ae57-eebdc1a4dfc9" d="M70.20608,433.85778h8.64453v34.31934l.77393,1.80664c2.2146,4.19287,5.4834,6.38623,9.80566,6.58008,4.66602-.34375,7.97754-2.45166,9.93457-6.32227v-.38672l.25806-.51611c.1936-.77441,.34937-1.48389,.46777-2.12891,.11792-.64502,.17749-1.22607,.17749-1.7417v-31.61035h8.51538v31.09424c0,.45117,.04272,.79541,.12891,1.03174l-.12891,2.06445-.25806,1.80664-.12915,.25781-.51611,2.06445c-4.15039,8.08545-10.1604,12.12793-18.03052,12.12793-1.39819,0-2.87085-.12891-4.41895-.38721-6.64478-1.67725-11.28955-5.33252-13.93433-10.9668l-.38721-1.41895c-.04321-.04297-.07544-.08105-.09668-.11328-.02173-.03223-.03223-.06934-.03223-.11279v-.03223c-.36597-1.2041-.58057-2.1499-.64502-2.83838v-1.03223l-.12915-.90332v-32.64209Z"/>
      <path class="uuid-8d8db4e3-5278-481a-ae57-eebdc1a4dfc9" d="M154.12136,440.95397l-.64502,.38721c-.21533,.23682-.41943,.44092-.61279,.61279-.1936,.17236-.37646,.31201-.54834,.41895l-.64526,.64551-.38696,.12891c-.40869,.51611-.83862,.86035-1.29028,1.03223-.40869,.55908-.9248,.98926-1.5481,1.29004-.25806,.34424-.51611,.60254-.77417,.77441-3.05371-4.021-6.79541-6.03174-11.22485-6.03174-.47314,0-.98926,.03223-1.54834,.09668-3.95679,.12891-6.49438,1.84961-7.61206,5.16064,0,2.27979,.68774,4.17188,2.06421,5.67676l.90308,.51611,.38721,.12939,1.41919,.64502h.64502l.51611,.12891,.64526,.12891c.49438,.19385,.92432,.32275,1.29004,.38721l1.03223,.25781h.38696l4.25781,1.03223h.38696l.38721,.12939h.38696l.38721,.12891,1.80615,.38721,.38721,.12891,.51587,.12891,1.03223,.38721c1.09668,.27979,1.99976,.62402,2.70947,1.03223l.25806,.25781,.38696,.12891,.25806,.38721c.32251,.17236,.58057,.34424,.77417,.51611,.15015,.08594,.23633,.17236,.25806,.25781l1.54834,1.41943c1.80615,2.6665,2.70947,5.38672,2.70947,8.16064,0,1.4624-.25806,2.95703-.77417,4.4834-1.41919,4.83838-4.17212,8.19287-8.25732,10.06348-.53784,.34424-1.05396,.60254-1.54834,.77441-1.29028,.25781-2.5376,.44629-3.7417,.56445-1.20435,.11816-2.38672,.17725-3.54785,.17725-8.10718,0-14.79468-3.12891-20.06299-9.38623l.12915-.2583,.25806-.12891c.08569-.08545,.16113-.12891,.22583-.12891h.03223c.47266-.55908,.98877-.98877,1.5481-1.29004l.38721-.38721,1.54834-1.29004,.25781-.12939c.08569-.08545,.16138-.12891,.22583-.12891h.03223c.34375-.36523,.67749-.69336,1-.98389,.32251-.29004,.63403-.521,.9353-.69336h.38721c3.65527,4.77393,7.79468,7.16064,12.41821,7.16064,2.42969,0,4.9563-.62354,7.58008-1.87061,.49438-.55908,.96753-.98877,1.41919-1.29053l.12891-.38672c.49438-.68799,.83862-1.37598,1.03223-2.06445,.02124-.15039,.03223-.29053,.03223-.41943v-.38721c0-2.47217-.95703-4.39697-2.87061-5.77344l-.38721-.12891c-.47314-.19385-.90308-.32275-1.29004-.38721l-.25806-.25781h-.38721l-.51611-.12939-.25806-.12891h-.38696l-.25806-.12891c-.83862-.12891-1.5271-.30078-2.06421-.51611h-.38721l-1.03223-.2583h-.38696l-.51611-.12891-.25806-.12891c-.83862-.12891-1.5271-.30078-2.06421-.51611-8.60156-.98877-13.37549-5.41895-14.32129-13.28906,.19336-9.354,5.31079-14.47168,15.35327-15.35352,.49463-.04297,.97827-.0752,1.45166-.09668,.47266-.02148,.9353-.03223,1.38696-.03223,7.4397,0,13.07397,2.79541,16.90161,8.38623Z"/>
      <path class="uuid-8d8db4e3-5278-481a-ae57-eebdc1a4dfc9" d="M165.91385,433.85778h8.51538v49.28613h-8.51538v-49.28613Z"/>
      <path class="uuid-8d8db4e3-5278-481a-ae57-eebdc1a4dfc9" d="M188.15701,433.59997h9.54761l.51611,.90283,.25806,.2583,.51611,.90283c.17188,.23682,.32251,.46777,.45166,.69385,.12891,.22559,.23633,.4248,.32251,.59668l.25806,.12891,.12891,.25781,1.16113,1.80664,1.03223,1.54785c.08569,.06494,.12915,.12939,.12915,.19385v.06445c.64502,.70947,1.07495,1.35449,1.29004,1.93506,.30103,.32275,.55347,.63477,.75806,.93555,.2041,.30127,.38159,.5918,.53223,.87109l.51611,.64502,.38696,.77393,.25806,.38721,.25806,.25781,.51611,.90332,.25806,.2583,.90308,1.41895,1.03223,1.54834,.90308,1.29004,.25806,.2583,.25806,.38721,.12915,.38672,.25806,.38721,.25806,.25781,.51587,.90332,.25806,.2583,.90332,1.41895,.12891,.2583,.25806,.38672c.08569,.06445,.12891,.12891,.12891,.19385v.06445c.21484,.23682,.40845,.4624,.58081,.67725,.17188,.21533,.32251,.41943,.45142,.61279l.38721,.64502,.25806,.51611c.45142,.47314,.75244,.94678,.90308,1.41943l.51611,.77393c.25806,.19385,.47266,.45166,.64502,.77441l.51611,.77393c.2146,.30127,.39209,.58057,.53223,.83887,.13965,.25781,.26294,.49463,.37085,.70947,.15015,.10791,.23633,.23682,.25806,.38721l.38721,.25781,.12891,.38721,.25806,.25781,.25806,.38721,.12891,.38721c.66626,.77393,1.13965,1.41895,1.41943,1.93506v-35.48047h8.51538v49.41455h-9.54761l-.51611-.90283-.25806-.2583-.12891-.38672c-.66699-.77441-1.14014-1.41943-1.41943-1.93555l-.12891-.25781c-.32251-.43018-.60229-.82764-.83862-1.19385-.23682-.36523-.43042-.69824-.58057-.99951l-.64526-.77441-1.29004-1.93506-.12915-.2583-.25806-.25781-.51611-.90332c-.17236-.23633-.32251-.46777-.45142-.69336-.12915-.22607-.23682-.42432-.32251-.59668-.45166-.45166-.75293-.83887-.90332-1.16113-.32251-.49463-.5376-.88184-.64502-1.16113-.15063-.08594-.23682-.17188-.25806-.2583l-.25806-.25781-.12891-.38721-.25806-.2583-.12915-.38672c-.23682-.23633-.44092-.45654-.61279-.66113-.17236-.2041-.31201-.41406-.41943-.62939l-1.67725-2.45117-.25806-.64502c-.5376-.49463-.88184-1.01074-1.03198-1.54834-.64526-.70947-1.07568-1.35498-1.29028-1.93555l-.51611-.51611-.25806-.64502-.64502-.64502-.38721-.77393-.38696-.51611c-.17236-.23633-.32251-.46777-.45166-.69336-.12891-.22607-.23682-.4248-.32251-.59717l-.51611-.77393c-.15063-.08545-.23682-.17188-.25806-.25781l-.90308-1.29053c-.21509-.30078-.39258-.58057-.53223-.83838-.14014-.2583-.26367-.49463-.37085-.70996l-.38721-.38672-.12891-.38721-.38721-.38721-.12891-.38672c-.15063-.08594-.23682-.17188-.25806-.2583-.04321-.04297-.07568-.08057-.09668-.11279-.02173-.03223-.03223-.06982-.03223-.11279v-.03223c-.66699-.77441-1.14014-1.41943-1.41943-1.93555v35.35156h-8.51538v-49.41455Z"/>
      <path class="uuid-8d8db4e3-5278-481a-ae57-eebdc1a4dfc9" d="M243.52639,433.72888h30.96509v7.74121h-22.44971v12.38574c.02124,.34424,.18237,.51611,.48389,.51611h20.03052v7.6123h-20.5144v12.90234c0,.43018,.17188,.64502,.51611,.64502h23.35278v7.6123h-32.38428v-49.41504Z"/>
      <path class="uuid-8d8db4e3-5278-481a-ae57-eebdc1a4dfc9" d="M319.08718,440.95397l-.64453,.38721c-.21582,.23682-.41992,.44092-.61328,.61279-.19336,.17236-.37598,.31201-.54785,.41895l-.64551,.64551-.38672,.12891c-.40918,.51611-.83887,.86035-1.29004,1.03223-.40918,.55908-.9248,.98926-1.54883,1.29004-.25781,.34424-.51562,.60254-.77441,.77441-3.05371-4.021-6.79492-6.03174-11.22461-6.03174-.47266,0-.98926,.03223-1.54785,.09668-3.95703,.12891-6.49414,1.84961-7.6123,5.16064,0,2.27979,.6875,4.17188,2.06445,5.67676l.90332,.51611,.38672,.12939,1.41895,.64502h.64551l.51562,.12891,.64551,.12891c.49414,.19385,.92383,.32275,1.29004,.38721l1.03223,.25781h.38672l4.25781,1.03223h.3877l.38672,.12939h.38672l.3877,.12891,1.80566,.38721,.3877,.12891,.51562,.12891,1.03223,.38721c1.09668,.27979,2,.62402,2.70996,1.03223l.25781,.25781,.38672,.12891,.25781,.38721c.32324,.17236,.58105,.34424,.77441,.51611,.15039,.08594,.23633,.17236,.25781,.25781l1.54883,1.41943c1.80566,2.6665,2.70898,5.38672,2.70898,8.16064,0,1.4624-.25781,2.95703-.77441,4.4834-1.41895,4.83838-4.17188,8.19287-8.25684,10.06348-.53809,.34424-1.05371,.60254-1.54785,.77441-1.29102,.25781-2.53809,.44629-3.74219,.56445s-2.38672,.17725-3.54785,.17725c-8.10742,0-14.79492-3.12891-20.06299-9.38623l.12915-.2583,.25806-.12891c.08569-.08545,.16113-.12891,.22583-.12891h.03223c.47266-.55908,.98877-.98877,1.5481-1.29004l.38721-.38721,1.54785-1.29004,.25879-.12939c.08496-.08545,.16113-.12891,.22559-.12891h.03223c.34375-.36523,.67676-.69336,1-.98389,.32227-.29004,.63379-.521,.93555-.69336h.38672c3.65527,4.77393,7.79492,7.16064,12.41797,7.16064,2.42969,0,4.95605-.62354,7.58008-1.87061,.49414-.55908,.96777-.98877,1.41895-1.29053l.12988-.38672c.49414-.68799,.83789-1.37598,1.03223-2.06445,.02051-.15039,.03223-.29053,.03223-.41943v-.38721c0-2.47217-.95801-4.39697-2.87109-5.77344l-.38672-.12891c-.47363-.19385-.90332-.32275-1.29102-.38721l-.25781-.25781h-.38672l-.5166-.12939-.25781-.12891h-.38672l-.25781-.12891c-.83887-.12891-1.52734-.30078-2.06445-.51611h-.3877l-1.03223-.2583h-.38672l-.51562-.12891-.25879-.12891c-.83789-.12891-1.52637-.30078-2.06445-.51611-8.60156-.98877-13.375-5.41895-14.3208-13.28906,.19336-9.354,5.31104-14.47168,15.35303-15.35352,.49512-.04297,.97852-.0752,1.45215-.09668,.47266-.02148,.93555-.03223,1.38672-.03223,7.43945,0,13.07422,2.79541,16.90137,8.38623Z"/>
      <path class="uuid-8d8db4e3-5278-481a-ae57-eebdc1a4dfc9" d="M363.65115,440.95397l-.64502,.38721c-.21533,.23682-.41943,.44092-.61279,.61279-.19385,.17236-.37646,.31201-.54834,.41895l-.64502,.64551-.38721,.12891c-.40869,.51611-.83887,.86035-1.29004,1.03223-.40869,.55908-.9248,.98926-1.54834,1.29004-.2583,.34424-.51611,.60254-.77441,.77441-3.05371-4.021-6.79492-6.03174-11.22461-6.03174-.47314,0-.98926,.03223-1.54834,.09668-3.95654,.12891-6.49414,1.84961-7.6123,5.16064,0,2.27979,.68799,4.17188,2.06445,5.67676l.90332,.51611,.38672,.12939,1.41943,.64502h.64502l.51611,.12891,.64502,.12891c.49463,.19385,.92432,.32275,1.29053,.38721l1.03174,.25781h.38721l4.25781,1.03223h.38721l.38672,.12939h.38721l.38721,.12891,1.80615,.38721,.38721,.12891,.51611,.12891,1.03223,.38721c1.09668,.27979,1.99951,.62402,2.70947,1.03223l.25781,.25781,.38721,.12891,.25781,.38721c.32275,.17236,.58057,.34424,.77441,.51611,.1499,.08594,.23633,.17236,.25781,.25781l1.54834,1.41943c1.80615,2.6665,2.70947,5.38672,2.70947,8.16064,0,1.4624-.2583,2.95703-.77441,4.4834-1.41895,4.83838-4.17188,8.19287-8.25732,10.06348-.5376,.34424-1.05371,.60254-1.54785,.77441-1.29053,.25781-2.5376,.44629-3.7417,.56445-1.20459,.11816-2.38721,.17725-3.54834,.17725-8.10693,0-14.79443-3.12891-20.0625-9.38623l.12891-.2583,.25781-.12891c.08594-.08545,.16162-.12891,.22607-.12891h.03223c.47266-.55908,.98877-.98877,1.54834-1.29004l.38672-.38721,1.54834-1.29004,.2583-.12939c.08545-.08545,.16113-.12891,.22559-.12891h.03223c.34375-.36523,.67725-.69336,1-.98389,.32275-.29004,.63379-.521,.93555-.69336h.38672c3.65576,4.77393,7.79492,7.16064,12.41846,7.16064,2.42969,0,4.95605-.62354,7.58008-1.87061,.49414-.55908,.96777-.98877,1.41895-1.29053l.12939-.38672c.49414-.68799,.83838-1.37598,1.03223-2.06445,.021-.15039,.03223-.29053,.03223-.41943v-.38721c0-2.47217-.95752-4.39697-2.87109-5.77344l-.38672-.12891c-.47363-.19385-.90332-.32275-1.29053-.38721l-.25781-.25781h-.38721l-.51611-.12939-.25781-.12891h-.38721l-.25781-.12891c-.83887-.12891-1.52734-.30078-2.06445-.51611h-.38721l-1.03223-.2583h-.38721l-.51562-.12891-.2583-.12891c-.83838-.12891-1.52686-.30078-2.06445-.51611-8.60156-.98877-13.375-5.41895-14.32129-13.28906,.19385-9.354,5.31104-14.47168,15.35352-15.35352,.49463-.04297,.97852-.0752,1.45166-.09668,.47266-.02148,.93555-.03223,1.38672-.03223,7.43994,0,13.07422,2.79541,16.90186,8.38623Z"/>
    </g>
  </g>
</svg>