<?xml version="1.0" encoding="UTF-8"?>
<svg id="uuid-97cbd6bd-c9f9-4a55-a04c-fb41e691d5df" data-name="Layer 1" xmlns="http://www.w3.org/2000/svg" width=".54993in" height=".51999in" viewBox="0 0 39.59523 37.4391">
  <defs>
    <style>
      .uuid-1d7e16da-d536-4210-b9fc-912946c11c2f {
        fill: #fefefe;
      }

      .uuid-612ff341-a70f-4011-9c11-864996d2f708 {
        fill: #d54e67;
      }

      .uuid-c17cfe16-67fd-442f-9a29-f595e3dcb43f {
        fill: #0f0e0e;
      }
    </style>
  </defs>
  <path class="uuid-c17cfe16-67fd-442f-9a29-f595e3dcb43f" d="M33.2413,37.36777l-.00414,.07134H.03336l.0136-.07313c11.06478,.0006,22.12956,.0012,33.19434,.0018Z"/>
  <path class="uuid-612ff341-a70f-4011-9c11-864996d2f708" d="M33.2413,37.36777c-11.06478-.0006-22.12956-.0012-33.19434-.0018-.06779-.12601-.03358-.26223-.0336-.39309C.01149,27.0417,.0334,17.11044,.00005,7.17937-.01191,3.61937,2.17638,1.31622,4.41973,.46598,5.22117,.16223,6.05086,.00876,6.90752,.0087,17.65716,.00786,28.40681,.00994,39.15644,0c.34246-.00032,.4392,.06578,.43879,.42633-.01144,10.07686-.00885,20.15373-.00938,30.23061-.00017,3.23529-2.42979,6.10167-5.62189,6.64535-.24109,.04106-.47903,.07319-.72266,.06549Zm-9.55863-13.19764l.06468-.01229c.02606,.05251,.05438,.10404,.07786,.15767,.79903,1.82479,1.60419,3.64698,2.38897,5.47786,.11426,.26658,.24624,.3673,.53475,.34494,.36253-.0281,.73059-.02813,1.09307,.00031,.26711,.02096,.37757-.09304,.47488-.31793,.78144-1.80601,1.57292-3.60769,2.36306-5.40994,.03455-.07882,.03091-.18912,.17075-.22426,0,.11897-.00047,.22592,.00007,.33288,.01082,2.13521,.02576,4.27041,.02711,6.40562,.00015,.23959,.03637,.33778,.30747,.32809,.61923-.02214,1.23988-.0129,1.85976-.0034,.18636,.00285,.27621-.01794,.27571-.24564-.00773-3.50783-.0067-7.01569-.00173-10.52354,.00026-.18459-.04197-.24853-.23901-.24603-.86303,.01092-1.72635,.01071-2.58938-.00019-.18006-.00227-.25122,.07334-.31702,.22044-.3351,.74914-.6797,1.49404-1.01986,2.24093-.61826,1.35751-1.23572,2.71538-1.85658,4.07985-.12533-.09179-.14614-.21756-.19513-.32462-.90418-1.97578-1.8091-3.95123-2.70346-5.93144-.09192-.20352-.19192-.29091-.42674-.28648-.83856,.0158-1.67767,.01252-2.51639,.0016-.20226-.00263-.26431,.04787-.26391,.25769,.00656,3.4957,.00495,6.99141,.00371,10.48713-.00005,.1489-.0268,.27759,.2095,.27224,.69261-.01565,1.38586-.01038,2.07873-.00203,.16308,.00196,.20576-.05168,.20233-.20744-.00935-.42462-.00319-.84958-.00319-1.27441v-5.59762Zm-5.14013,7.07593c-.01829-.0647-.0263-.11133-.04421-.1538-1.49715-3.54875-2.99713-7.09632-4.48725-10.64801-.08052-.19192-.19352-.2085-.36238-.20732-.74182,.00516-1.48417,.01719-2.22533-.00559-.27312-.00839-.40188,.07613-.50838,.32487-1.13569,2.65268-2.28393,5.3-3.42755,7.9493-.39096,.90569-.77861,1.81279-1.17694,2.74057,.88921,0,1.7404-.00523,2.59144,.00412,.18491,.00203,.27475-.04957,.34083-.23084,.19009-.52139,.41658-1.02956,.60676-1.55092,.07424-.20351,.17457-.26962,.3928-.26798,1.43499,.0108,2.87016,.01198,4.30512-.00103,.22644-.00205,.31019,.08425,.37978,.27584,.18953,.52182,.39882,1.03646,.59716,1.55514,.04869,.12732,.08507,.22415,.26831,.22155,.91047-.01292,1.82123-.0059,2.74982-.0059Zm-3.06944-21.33191c.47256-.55844,.92436-1.1138,1.40226-1.64578,.1738-.19346,.15708-.29351-.03265-.45376-1.61806-1.36663-3.45708-1.88284-5.55078-1.49097-2.38389,.44618-4.19898,2.36306-4.48867,4.76332-.40527,3.358,2.09824,6.24326,5.47991,6.31705,1.79435,.03915,3.29957-.64838,4.62094-1.81371,.16538-.14585,.13517-.23615,.00161-.37238-.39097-.39877-.79003-.79198-1.15053-1.21727-.20952-.24717-.32174-.25699-.58235-.03995-1.01815,.84791-2.16274,1.30657-3.49827,.85622-1.64122-.55344-2.49895-2.47587-1.90616-4.21118,.55656-1.62926,2.2047-2.46314,3.85255-1.94668,.73658,.23086,1.33089,.67731,1.85216,1.25511Zm5.72316,1.87724c0,1.72423,.00563,3.44849-.00618,5.17264-.00174,.25354,.06038,.32509,.3177,.31827,.71704-.01899,1.43522-.01839,2.15232-.00025,.25351,.00641,.32438-.05856,.32095-.31627-.01502-1.12905,.00429-2.25858-.01386-3.38754-.00467-.29064,.07868-.35975,.36132-.3566,1.33764,.01493,2.67568-.0036,4.01324,.0145,.30182,.00408,.36655-.09326,.35507-.3695-.02066-.49698-.02483-.99644,.00142-1.4929,.01529-.28901-.09082-.33624-.35124-.33383-1.34985,.01252-2.69994-.00031-4.0498,.01134-.24941,.00215-.33684-.05581-.32892-.31902,.01935-.64297,.02034-1.28735-.00019-1.93025-.00893-.27966,.05946-.36683,.35484-.36307,1.36191,.01736,2.7242,.00282,4.08625,.01253,.22055,.00157,.29564-.05134,.28733-.28145-.01796-.49719-.02414-.99643,.00133-1.49297,.01581-.30815-.05332-.41141-.39092-.4088-2.24981,.01734-4.49987,.0164-6.74971,.00062-.31904-.00224-.37018,.09684-.36782,.38635,.01396,1.71197,.00688,3.42411,.00689,5.1362Zm8.07399-5.49805c-.01102,.10447,.05446,.14663,.09974,.20023,.83752,.99125,1.66755,1.98898,2.51824,2.96883,.18757,.21604,.19632,.35042,.00915,.56696-.83273,.96341-1.65003,1.94014-2.47001,2.91449-.06484,.07705-.17739,.13429-.15153,.28442,.5097,0,1.0172-.00617,1.52438,.00366,.15762,.00306,.24253-.07821,.33049-.18277,.87442-1.03938,1.74597-2.08122,2.63008-3.11233,.13642-.15911,.11003-.24254-.01337-.38532-.57089-.66053-1.1265-1.3342-1.69256-1.99893-.3607-.42357-.65539-1.00381-1.11658-1.21315-.4622-.2098-1.09448-.04609-1.66802-.04609Z"/>
  <path class="uuid-1d7e16da-d536-4210-b9fc-912946c11c2f" d="M23.68267,24.17012v5.59762c0,.42483-.00617,.84979,.00319,1.27441,.00343,.15576-.03925,.2094-.20233,.20744-.69287-.00836-1.38612-.01363-2.07873,.00203-.23631,.00534-.20955-.12335-.2095-.27224,.00124-3.49571,.00285-6.99143-.00371-10.48713-.00039-.20982,.06165-.26032,.26391-.25769,.83871,.01092,1.67783,.0142,2.51639-.0016,.23481-.00442,.33482,.08296,.42674,.28648,.89436,1.98021,1.79928,3.95566,2.70346,5.93144,.049,.10706,.06981,.23283,.19513,.32462,.62087-1.36447,1.23833-2.72235,1.85658-4.07985,.34016-.74689,.68476-1.49179,1.01986-2.24093,.0658-.1471,.13696-.22272,.31702-.22044,.86303,.0109,1.72635,.01112,2.58938,.00019,.19704-.00249,.23927,.06145,.23901,.24603-.00497,3.50784-.006,7.0157,.00173,10.52354,.0005,.2277-.08934,.24849-.27571,.24564-.61988-.0095-1.24053-.01874-1.85976,.0034-.27109,.00969-.30731-.0885-.30747-.32809-.00135-2.13521-.01629-4.27042-.02711-6.40562-.00054-.10695-.00007-.21391-.00007-.33288-.13984,.03514-.13619,.14544-.17075,.22426-.79013,1.80225-1.58162,3.60393-2.36306,5.40994-.09731,.22489-.20777,.33889-.47488,.31793-.36248-.02844-.73054-.02841-1.09307-.00031-.28851,.02236-.42049-.07836-.53475-.34494-.78478-1.83089-1.58994-3.65307-2.38897-5.47786-.02348-.05363-.0518-.10516-.07786-.15767l-.06468,.01229Z"/>
  <path class="uuid-1d7e16da-d536-4210-b9fc-912946c11c2f" d="M18.54254,31.24605c-.9286,0-1.83935-.00702-2.74982,.0059-.18324,.0026-.21962-.09423-.26831-.22155-.19834-.51868-.40764-1.03332-.59716-1.55514-.06958-.19159-.15334-.27789-.37978-.27584-1.43496,.01301-2.87013,.01184-4.30512,.00103-.21823-.00164-.31857,.06446-.3928,.26798-.19018,.52136-.41667,1.02952-.60676,1.55092-.06608,.18126-.15592,.23287-.34083,.23084-.85104-.00934-1.70224-.00412-2.59144-.00412,.39832-.92779,.78598-1.83489,1.17694-2.74057,1.14362-2.6493,2.29185-5.29662,3.42755-7.9493,.10649-.24874,.23526-.33327,.50838-.32487,.74116,.02278,1.4835,.01075,2.22533,.00559,.16886-.00118,.28186,.0154,.36238,.20732,1.49011,3.55169,2.9901,7.09926,4.48725,10.64801,.01792,.04247,.02593,.0891,.04421,.1538Zm-7.77592-4.13042h2.49231c.75143,0,.75448-.00117,.48627-.69672-.43705-1.13338-.87855-2.26505-1.34202-3.45888l-1.63656,4.1556Z"/>
  <path class="uuid-1d7e16da-d536-4210-b9fc-912946c11c2f" d="M15.4731,9.91414c-.52127-.57781-1.11558-1.02426-1.85216-1.25511-1.64784-.51646-3.29599,.31742-3.85255,1.94668-.59279,1.73531,.26495,3.65774,1.90616,4.21118,1.33553,.45035,2.48012-.00831,3.49827-.85622,.26061-.21704,.37283-.20722,.58235,.03995,.3605,.42529,.75956,.81851,1.15053,1.21727,.13356,.13623,.16377,.22653-.00161,.37238-1.32137,1.16534-2.82659,1.85286-4.62094,1.81371-3.38167-.07378-5.88518-2.95905-5.47991-6.31705,.28969-2.40026,2.10478-4.31714,4.48867-4.76332,2.09371-.39187,3.93273,.12434,5.55078,1.49097,.18973,.16025,.20645,.2603,.03265,.45376-.4779,.53198-.9297,1.08734-1.40226,1.64578Z"/>
  <path class="uuid-1d7e16da-d536-4210-b9fc-912946c11c2f" d="M21.19625,11.79137c0-1.71208,.00708-3.42423-.00689-5.1362-.00236-.28951,.04879-.38859,.36782-.38635,2.24984,.01578,4.4999,.01672,6.74971-.00062,.3376-.0026,.40672,.10065,.39092,.4088-.02547,.49654-.01928,.99578-.00133,1.49297,.00831,.23011-.06678,.28302-.28733,.28145-1.36206-.00971-2.72435,.00483-4.08625-.01253-.29538-.00377-.36377,.08341-.35484,.36307,.02053,.64289,.01954,1.28728,.00019,1.93025-.00792,.26321,.07952,.32117,.32892,.31902,1.34987-.01165,2.69995,.00118,4.0498-.01134,.26042-.00241,.36653,.04482,.35124,.33383-.02625,.49646-.02208,.99591-.00142,1.4929,.01148,.27624-.05325,.37358-.35507,.3695-1.33756-.0181-2.6756,.00043-4.01324-.0145-.28264-.00315-.36599,.06596-.36132,.3566,.01815,1.12896-.00116,2.25849,.01386,3.38754,.00343,.25771-.06743,.32269-.32095,.31627-.71709-.01814-1.43527-.01874-2.15232,.00025-.25732,.00681-.31944-.06474-.3177-.31827,.0118-1.72415,.00618-3.44841,.00618-5.17264Z"/>
  <path class="uuid-1d7e16da-d536-4210-b9fc-912946c11c2f" d="M29.27025,6.29332c.57355,0,1.20583-.16371,1.66802,.04609,.46119,.20934,.75588,.78958,1.11658,1.21315,.56606,.66473,1.12167,1.3384,1.69256,1.99893,.1234,.14277,.14979,.22621,.01337,.38532-.8841,1.03111-1.75566,2.07295-2.63008,3.11233-.08796,.10455-.17287,.18582-.33049,.18277-.50719-.00983-1.01468-.00366-1.52438-.00366-.02586-.15014,.08669-.20738,.15153-.28442,.81998-.97435,1.63728-1.95108,2.47001-2.91449,.18717-.21654,.17842-.35092-.00915-.56696-.85069-.97985-1.68072-1.97758-2.51824-2.96883-.04528-.0536-.11077-.09576-.09974-.20023Z"/>
  <path class="uuid-612ff341-a70f-4011-9c11-864996d2f708" d="M10.76661,27.11563l1.63656-4.1556c.46347,1.19383,.90497,2.3255,1.34202,3.45888,.26821,.69554,.26516,.69672-.48627,.69672h-2.49231Z"/>
</svg>